HIERARCHY
ROOT hip
{
  OFFSET 0 90.174 2.4664
  CHANNELS 6 Xposition Yposition Zposition Zrotation Xrotation Yrotation
  JOINT abdomen
  {
    OFFSET 0 -1.186 -1.5018
    CHANNELS 6 Xposition Yposition Zposition Zrotation Xrotation Yrotation
    JOINT abdomen2
    {
      OFFSET 0 9.964 0.2134
      CHANNELS 6 Xposition Yposition Zposition Zrotation Xrotation Yrotation
      JOINT chest
      {
        OFFSET 0 13.134 -3.2573
        CHANNELS 6 Xposition Yposition Zposition Zrotation Xrotation Yrotation
        JOINT neck
        {
          OFFSET 0 20.686 -1.6905
          CHANNELS 6 Xposition Yposition Zposition Zrotation Xrotation Yrotation
          JOINT head
          {
            OFFSET 0 7.238 -0.1237
            CHANNELS 6 Xposition Yposition Zposition Zrotation Xrotation Yrotation
            End Site
            {
              OFFSET 0 0 0
            }
          }
        }
        JOINT lCollar
        {
          OFFSET 1.7069 20.075 5.0056
          CHANNELS 6 Xposition Yposition Zposition Zrotation Xrotation Yrotation
          JOINT lShldr
          {
            OFFSET 13.6458 -0.047 -4.849
            CHANNELS 6 Xposition Yposition Zposition Zrotation Xrotation Yrotation
            JOINT lForeArm
            {
              OFFSET 28.3255 -0.9759 2.2888
              CHANNELS 6 Xposition Yposition Zposition Zrotation Xrotation Yrotation
              JOINT lHand
              {
                OFFSET 22.1583 -0.53 10.8316
                CHANNELS 6 Xposition Yposition Zposition Zrotation Xrotation Yrotation
                JOINT lThumb1
                {
                  OFFSET 0.786 0.112 2.5817
                  CHANNELS 6 Xposition Yposition Zposition Zrotation Xrotation Yrotation
                  JOINT lThumb2
                  {
                    OFFSET 0.3601 -0.878 4.2331
                    CHANNELS 6 Xposition Yposition Zposition Zrotation Xrotation Yrotation
                    JOINT lThumb2_End
                    {
                      OFFSET 1.8127 -1.216 2.2227
                      CHANNELS 6 Xposition Yposition Zposition Zrotation Xrotation Yrotation
                      End Site
                      {
                        OFFSET 0.0181 -0.0122 0.0222
                      }
                    }
                  }
                }
                JOINT lCarpal1
                {
                  OFFSET 0.9571 1.114 1.7695
                  CHANNELS 6 Xposition Yposition Zposition Zrotation Xrotation Yrotation
                  JOINT lIndex1
                  {
                    OFFSET 4.1246 0.487 4.1451
                    CHANNELS 6 Xposition Yposition Zposition Zrotation Xrotation Yrotation
                    JOINT lIndex2
                    {
                      OFFSET 3.4052 -1.454 2.7682
                      CHANNELS 6 Xposition Yposition Zposition Zrotation Xrotation Yrotation
                      JOINT lIndex2_End
                      {
                        OFFSET 1.4531 -1.795 1.2713
                        CHANNELS 6 Xposition Yposition Zposition Zrotation Xrotation Yrotation
                        End Site
                        {
                          OFFSET 0.0145 -0.0179 0.0127
                        }
                      }
                    }
                  }
                  JOINT lMid1
                  {
                    OFFSET 5.6954 0.21 2.1184
                    CHANNELS 6 Xposition Yposition Zposition Zrotation Xrotation Yrotation
                    JOINT lMid2
                    {
                      OFFSET 3.9766 -1.54 2.3863
                      CHANNELS 6 Xposition Yposition Zposition Zrotation Xrotation Yrotation
                      JOINT lMid2_End
                      {
                        OFFSET 1.4042 -1.926 1.125
                        CHANNELS 6 Xposition Yposition Zposition Zrotation Xrotation Yrotation
                        End Site
                        {
                          OFFSET 0.014 -0.0193 0.0113
                        }
                      }
                    }
                  }
                }
                JOINT lCarpal2
                {
                  OFFSET 2.0956 0.66 -0.3894
                  CHANNELS 6 Xposition Yposition Zposition Zrotation Xrotation Yrotation
                  JOINT lRing1
                  {
                    OFFSET 5.0395 -0.09 2.4971
                    CHANNELS 6 Xposition Yposition Zposition Zrotation Xrotation Yrotation
                    JOINT lRing2
                    {
                      OFFSET 3.7921 -1.552 1.4806
                      CHANNELS 6 Xposition Yposition Zposition Zrotation Xrotation Yrotation
                      JOINT lRing2_End
                      {
                        OFFSET 1.4655 -1.808 0.9609
                        CHANNELS 6 Xposition Yposition Zposition Zrotation Xrotation Yrotation
                        End Site
                        {
                          OFFSET 0.0147 -0.0181 0.0096
                        }
                      }
                    }
                  }
                  JOINT lPinky1
                  {
                    OFFSET 4.9141 -1.269 0.3591
                    CHANNELS 6 Xposition Yposition Zposition Zrotation Xrotation Yrotation
                    JOINT lPinky2
                    {
                      OFFSET 3.1477 -1.685 0.8462
                      CHANNELS 6 Xposition Yposition Zposition Zrotation Xrotation Yrotation
                      JOINT lPinky2_End
                      {
                        OFFSET 0.8055 -1.585 0.7955
                        CHANNELS 6 Xposition Yposition Zposition Zrotation Xrotation Yrotation
                        End Site
                        {
                          OFFSET 0.0081 -0.0158 0.008
                        }
                      }
                    }
                  }
                }
              }
            }
          }
        }
        JOINT rCollar
        {
          OFFSET -1.7069 20.075 5.0056
          CHANNELS 6 Xposition Yposition Zposition Zrotation Xrotation Yrotation
          JOINT rShldr
          {
            OFFSET -13.6458 -0.047 -4.849
            CHANNELS 6 Xposition Yposition Zposition Zrotation Xrotation Yrotation
            JOINT rForeArm
            {
              OFFSET -28.3255 -0.9759 2.2888
              CHANNELS 6 Xposition Yposition Zposition Zrotation Xrotation Yrotation
              JOINT rHand
              {
                OFFSET -22.1583 -0.53 10.8316
                CHANNELS 6 Xposition Yposition Zposition Zrotation Xrotation Yrotation
                JOINT rThumb1
                {
                  OFFSET -0.786 0.112 2.5817
                  CHANNELS 6 Xposition Yposition Zposition Zrotation Xrotation Yrotation
                  JOINT rThumb2
                  {
                    OFFSET -0.3601 -0.878 4.2331
                    CHANNELS 6 Xposition Yposition Zposition Zrotation Xrotation Yrotation
                    JOINT rThumb2_End
                    {
                      OFFSET -1.8127 -1.216 2.2227
                      CHANNELS 6 Xposition Yposition Zposition Zrotation Xrotation Yrotation
                      End Site
                      {
                        OFFSET -0.0181 -0.0122 0.0222
                      }
                    }
                  }
                }
                JOINT rCarpal1
                {
                  OFFSET -0.9571 1.114 1.7695
                  CHANNELS 6 Xposition Yposition Zposition Zrotation Xrotation Yrotation
                  JOINT rIndex1
                  {
                    OFFSET -4.1246 0.487 4.1451
                    CHANNELS 6 Xposition Yposition Zposition Zrotation Xrotation Yrotation
                    JOINT rIndex2
                    {
                      OFFSET -3.4052 -1.454 2.7682
                      CHANNELS 6 Xposition Yposition Zposition Zrotation Xrotation Yrotation
                      JOINT rIndex2_End
                      {
                        OFFSET -1.4531 -1.795 1.2713
                        CHANNELS 6 Xposition Yposition Zposition Zrotation Xrotation Yrotation
                        End Site
                        {
                          OFFSET -0.0145 -0.018 0.0127
                        }
                      }
                    }
                  }
                  JOINT rMid1
                  {
                    OFFSET -5.6954 0.21 2.1184
                    CHANNELS 6 Xposition Yposition Zposition Zrotation Xrotation Yrotation
                    JOINT rMid2
                    {
                      OFFSET -3.9766 -1.54 2.3863
                      CHANNELS 6 Xposition Yposition Zposition Zrotation Xrotation Yrotation
                      JOINT rMid2_End
                      {
                        OFFSET -1.4042 -1.926 1.125
                        CHANNELS 6 Xposition Yposition Zposition Zrotation Xrotation Yrotation
                        End Site
                        {
                          OFFSET -0.014 -0.0193 0.0113
                        }
                      }
                    }
                  }
                }
                JOINT rCarpal2
                {
                  OFFSET -2.0956 0.66 -0.3894
                  CHANNELS 6 Xposition Yposition Zposition Zrotation Xrotation Yrotation
                  JOINT rRing1
                  {
                    OFFSET -5.0395 -0.09 2.4971
                    CHANNELS 6 Xposition Yposition Zposition Zrotation Xrotation Yrotation
                    JOINT rRing2
                    {
                      OFFSET -3.7921 -1.552 1.4806
                      CHANNELS 6 Xposition Yposition Zposition Zrotation Xrotation Yrotation
                      JOINT rRing2_End
                      {
                        OFFSET -1.4655 -1.808 0.9609
                        CHANNELS 6 Xposition Yposition Zposition Zrotation Xrotation Yrotation
                        End Site
                        {
                          OFFSET -0.0147 -0.0181 0.0096
                        }
                      }
                    }
                  }
                  JOINT rPinky1
                  {
                    OFFSET -4.9141 -1.269 0.3592
                    CHANNELS 6 Xposition Yposition Zposition Zrotation Xrotation Yrotation
                    JOINT rPinky2
                    {
                      OFFSET -3.1477 -1.685 0.8462
                      CHANNELS 6 Xposition Yposition Zposition Zrotation Xrotation Yrotation
                      JOINT rPinky2_End
                      {
                        OFFSET -0.8055 -1.585 0.7955
                        CHANNELS 6 Xposition Yposition Zposition Zrotation Xrotation Yrotation
                        End Site
                        {
                          OFFSET -0.0081 -0.0158 0.008
                        }
                      }
                    }
                  }
                }
              }
            }
          }
        }
      }
    }
  }
  JOINT lThigh
  {
    OFFSET 8.367 -8.2066 0.5982
    CHANNELS 6 Xposition Yposition Zposition Zrotation Xrotation Yrotation
    JOINT lShin
    {
      OFFSET 2.1923 -43.463 -0.4932
      CHANNELS 6 Xposition Yposition Zposition Zrotation Xrotation Yrotation
      JOINT lFoot
      {
        OFFSET 0.7333 -45.8593 -2.6451
        CHANNELS 6 Xposition Yposition Zposition Zrotation Xrotation Yrotation
        End Site
        {
          OFFSET 2.6618 -4.2699 12.3931
        }
      }
    }
  }
  JOINT rThigh
  {
    OFFSET -8.367 -8.2066 0.5982
    CHANNELS 6 Xposition Yposition Zposition Zrotation Xrotation Yrotation
    JOINT rShin
    {
      OFFSET -2.1923 -43.463 -0.4931
      CHANNELS 6 Xposition Yposition Zposition Zrotation Xrotation Yrotation
      JOINT rFoot
      {
        OFFSET -0.7333 -45.8593 -2.6451
        CHANNELS 6 Xposition Yposition Zposition Zrotation Xrotation Yrotation
        End Site
        {
          OFFSET -2.6618 -4.2699 12.3931
        }
      }
    }
  }
}
MOTION
Frames:	4
Frame Time:	0.0333333
0 90.174 2.4664 0 0 -0 0 -1.186 -1.5018 0 0 -0 0 9.964 0.2134 0 0 -0 0 13.134 -3.2573 0 0 -0 0 20.686 -1.6905 0 0 -0 0 7.238 -0.1237 0 0 -0 1.7069 20.075 5.0056 0 0 -0 13.6458 -0.047 -4.849 1.66051 0.0835086 5.75766 28.3255 -0.9759 2.2888 -0.0175111 0.895433 15.7816 22.1583 -0.53 10.8316 7.95139e-016 -1.98785e-016 -0 0.786 0.112 2.5817 5.46658e-016 -3.97569e-016 -0 0.3601 -0.878 4.2331 5.96354e-016 0 -0 1.8127 -1.216 2.2227 3.97569e-016 1.98785e-016 9.54166e-015 0.9571 1.114 1.7695 1.49089e-016 -3.97569e-016 -0 4.1246 0.487 4.1451 6.4605e-016 0 3.18055e-015 3.4052 -1.454 2.7682 5.96354e-016 0 3.18055e-015 1.4531 -1.795 1.2713 8.94531e-016 -1.98785e-016 6.36111e-015 5.6954 0.21 2.1184 6.4605e-016 0 3.18055e-015 3.9766 -1.54 2.3863 5.96354e-016 0 3.18055e-015 1.4042 -1.926 1.125 8.94531e-016 -1.98785e-016 6.36111e-015 2.0956 0.66 -0.3894 1.49089e-016 -3.97569e-016 -0 5.0395 -0.09 2.4971 6.4605e-016 0 3.18055e-015 3.7921 -1.552 1.4806 5.96354e-016 0 3.18055e-015 1.4655 -1.808 0.9609 8.94531e-016 -1.98785e-016 6.36111e-015 4.9141 -1.269 0.3591 6.4605e-016 0 3.18055e-015 3.1477 -1.685 0.8462 5.96354e-016 0 3.18055e-015 0.8055 -1.585 0.7955 8.94531e-016 -1.98785e-016 6.36111e-015 -1.7069 20.075 5.0056 0 0 -0 -13.6458 -0.047 -4.849 -1.4496 0.0636048 -5.0245 -28.3255 -0.9759 2.2888 -1.74811 1.20616 -16.8394 -22.1583 -0.53 10.8316 -1.19271e-015 1.98785e-016 -3.18055e-015 -0.786 0.112 2.5817 -3.97569e-016 1.98785e-016 -3.18055e-015 -0.3601 -0.878 4.2331 -2.98177e-016 1.98785e-016 -3.18055e-015 -1.8127 -1.216 2.2227 -2.98177e-016 3.97569e-016 -0 -0.9571 1.114 1.7695 4.96962e-016 0 -6.36111e-015 -4.1246 0.487 4.1451 -9.93923e-017 3.97569e-016 -0 -3.4052 -1.454 2.7682 -8.94531e-016 5.96354e-016 -0 -1.4531 -1.795 1.2713 -3.97569e-016 3.97569e-016 -0 -5.6954 0.21 2.1184 -9.93923e-017 3.97569e-016 -0 -3.9766 -1.54 2.3863 -8.94531e-016 5.96354e-016 -0 -1.4042 -1.926 1.125 -3.97569e-016 3.97569e-016 -0 -2.0956 0.66 -0.3894 4.96962e-016 0 -6.36111e-015 -5.0395 -0.09 2.4971 -9.93923e-017 3.97569e-016 -0 -3.7921 -1.552 1.4806 -8.94531e-016 5.96354e-016 -0 -1.4655 -1.808 0.9609 -3.97569e-016 3.97569e-016 -0 -4.9141 -1.269 0.3592 -9.93923e-017 3.97569e-016 -0 -3.1477 -1.685 0.8462 -8.94531e-016 5.96354e-016 -0 -0.8055 -1.585 0.7955 -3.97569e-016 3.97569e-016 -0 8.367 -8.2066 0.5982 -4.66115 -1.03232 0.120763 2.1923 -43.463 -0.4932 0.00990601 1.55097 0.177175 0.7333 -45.8593 -2.6451 4.65196 -0.54114 -0.255042 -8.367 -8.2066 0.5982 4.66115 -1.03222 -0.120763 -2.1923 -43.463 -0.4931 -0.00990459 1.5509 -0.177176 -0.7333 -45.8593 -2.6451 -4.65196 -0.541171 0.255041 
-3.52444 39.359 27.4452 19.3894 17.3912 130.34 0 -1.186 -1.5018 -0.266503 11.2924 0.0555647 3.55271e-015 9.964 0.2134 -0.56132 22.5844 0.171032 0 13.134 -3.2573 -0.561321 22.5845 0.171037 -3.55271e-015 20.686 -1.6905 1.05988e-005 11.9102 -5.28816e-006 -3.55271e-015 7.238 -0.1237 4.29227e-006 8.19055 -6.21485e-006 1.7069 20.075 5.0056 10.1597 1.84261 -16.0888 13.6458 -0.047 -4.849 -39.6203 4.57804 -17.662 28.3255 -0.9759 2.2888 -4.93846 2.01383 16.7332 22.1583 -0.53 10.8316 -3.64475 -9.31199 -16.8907 0.786 0.112 2.5817 -3.18055e-015 3.18055e-015 -3.97569e-015 0.3601 -0.878 4.2331 4.43587e-006 -9.45518e-007 -1.71323e-006 1.8127 -1.216 2.2227 3.18055e-015 1.11319e-014 -6.36111e-015 0.9571 1.114 1.7695 -3.18055e-015 0 -3.97569e-015 4.1246 0.487 4.1451 1.10348e-031 1.59028e-015 -3.97569e-015 3.4052 -1.454 2.7682 4.43587e-006 -9.45518e-007 -1.71323e-006 1.4531 -1.795 1.2713 3.18055e-015 1.27222e-014 -6.36111e-015 5.6954 0.21 2.1184 1.10348e-031 1.59028e-015 -3.97569e-015 3.9766 -1.54 2.3863 4.43587e-006 -9.45518e-007 -1.71323e-006 1.4042 -1.926 1.125 3.18055e-015 1.27222e-014 -6.36111e-015 2.0956 0.66 -0.3894 -3.18055e-015 0 -3.97569e-015 5.0395 -0.09 2.4971 1.10348e-031 1.59028e-015 -3.97569e-015 3.7921 -1.552 1.4806 4.43587e-006 -9.45518e-007 -1.71323e-006 1.4655 -1.808 0.9609 3.18055e-015 1.27222e-014 -6.36111e-015 4.9141 -1.269 0.3591 1.10348e-031 1.59028e-015 -3.97569e-015 3.1477 -1.685 0.8462 4.43587e-006 -9.45518e-007 -1.71323e-006 0.8055 -1.585 0.7955 3.18055e-015 1.27222e-014 -6.36111e-015 -1.7069 20.075 5.0056 -9.20893 2.88206 16.7714 -13.6458 -0.047 -4.849 39.189 4.28746 18.0237 -28.3255 -0.9759 2.2888 2.88777 2.26347 -17.9144 -22.1583 -0.53 10.8316 4.39007 -11.0408 17.2784 -0.786 0.112 2.5817 -2.92379e-008 1.08506e-007 -8.76255e-008 -0.3601 -0.878 4.2331 2.92379e-008 -1.08506e-007 8.76255e-008 -1.8127 -1.216 2.2227 -2.92379e-008 1.08506e-007 -8.76255e-008 -0.9571 1.114 1.7695 5.76476e-015 5.96354e-016 -3.18055e-015 -4.1246 0.487 4.1451 -2.92379e-008 1.08506e-007 -8.76255e-008 -3.4052 -1.454 2.7682 2.92379e-008 -1.08506e-007 8.76255e-008 -1.4531 -1.795 1.2713 -2.92379e-008 1.08506e-007 -8.76255e-008 -5.6954 0.21 2.1184 -2.92379e-008 1.08506e-007 -8.76255e-008 -3.9766 -1.54 2.3863 2.92379e-008 -1.08506e-007 8.76255e-008 -1.4042 -1.926 1.125 -2.92379e-008 1.08506e-007 -8.76255e-008 -2.0956 0.66 -0.3894 5.76476e-015 5.96354e-016 -3.18055e-015 -5.0395 -0.09 2.4971 -2.92379e-008 1.08506e-007 -8.76255e-008 -3.7921 -1.552 1.4806 2.92379e-008 -1.08506e-007 8.76255e-008 -1.4655 -1.808 0.9609 -2.92379e-008 1.08506e-007 -8.76255e-008 -4.9141 -1.269 0.3592 -2.92379e-008 1.08506e-007 -8.76255e-008 -3.1477 -1.685 0.8462 2.92379e-008 -1.08506e-007 8.76255e-008 -0.8055 -1.585 0.7955 -2.92379e-008 1.08506e-007 -8.76255e-008 8.367 -8.2066 0.5982 23.2316 -47.1905 61.679 2.1923 -43.463 -0.4932 -6.75197 36.4869 -36.1027 0.7333 -45.8593 -2.6451 12.8888 29.6702 24.7201 -8.367 -8.2066 0.5982 -23.2567 -47.2045 -61.7108 -2.1923 -43.463 -0.4931 6.73241 36.495 36.1204 -0.7333 -45.8593 -2.6451 -12.9014 29.6753 -24.7272 
0.511804 17.2284 41.6164 -10.2012 36.7695 -163.268 1.77636e-015 -1.186 -1.5018 -0.360213 16.3214 -0.0225831 0 9.964 0.2134 -0.763219 32.6427 0.0718973 0 13.134 -3.2573 -0.763214 32.6427 0.0718965 0 20.686 -1.6905 -0.000106104 16.9699 3.25342e-005 0 7.238 -0.1237 -1.28229e-006 11.6648 -1.16606e-006 1.7069 20.075 5.0056 14.946 2.84113 -23.3017 13.6458 -0.047 -4.849 -56.9687 5.91339 -28.2905 28.3255 -0.9759 2.2888 -7.1601 2.51675 17.1754 22.1583 -0.53 10.8316 -6.92733 -11.8487 -24.5877 0.786 0.112 2.5817 -1.59028e-015 0 1.59028e-015 0.3601 -0.878 4.2331 4.0906e-007 1.08812e-006 -1.24136e-006 1.8127 -1.216 2.2227 2.38542e-015 0 -1.59028e-015 0.9571 1.114 1.7695 -2.38542e-015 3.18055e-015 3.18055e-015 4.1246 0.487 4.1451 -4.77083e-015 -3.18055e-015 1.11319e-014 3.4052 -1.454 2.7682 4.0906e-007 1.08812e-006 -1.24136e-006 1.4531 -1.795 1.2713 1.59028e-015 0 3.18055e-015 5.6954 0.21 2.1184 -4.77083e-015 -3.18055e-015 1.11319e-014 3.9766 -1.54 2.3863 4.0906e-007 1.08812e-006 -1.24136e-006 1.4042 -1.926 1.125 1.59028e-015 0 3.18055e-015 2.0956 0.66 -0.3894 -2.38542e-015 3.18055e-015 3.18055e-015 5.0395 -0.09 2.4971 -4.77083e-015 -3.18055e-015 1.11319e-014 3.7921 -1.552 1.4806 4.0906e-007 1.08812e-006 -1.24136e-006 1.4655 -1.808 0.9609 1.59028e-015 0 3.18055e-015 4.9141 -1.269 0.3591 -4.77083e-015 -3.18055e-015 1.11319e-014 3.1477 -1.685 0.8462 4.0906e-007 1.08812e-006 -1.24136e-006 0.8055 -1.585 0.7955 1.59028e-015 0 3.18055e-015 -1.7069 20.075 5.0056 -13.7994 4.23863 24.2878 -13.6458 -0.047 -4.849 56.3451 5.56821 28.4743 -28.3255 -0.9759 2.2888 4.9821 2.73936 -18.4091 -22.1583 -0.53 10.8316 8.29724 -14.0333 25.3344 -0.786 0.112 2.5817 -7.95139e-016 -6.36111e-015 -2.78299e-015 -0.3601 -0.878 4.2331 3.97569e-016 -6.36111e-015 7.95139e-016 -1.8127 -1.216 2.2227 -3.18055e-015 3.18055e-015 -1.59028e-015 -0.9571 1.114 1.7695 -3.97569e-016 -6.36111e-015 -3.18055e-015 -4.1246 0.487 4.1451 -5.96354e-015 -3.18055e-015 3.97569e-015 -3.4052 -1.454 2.7682 -0 0 5.56597e-015 -1.4531 -1.795 1.2713 2.78299e-015 0 5.96354e-015 -5.6954 0.21 2.1184 -5.96354e-015 -3.18055e-015 3.97569e-015 -3.9766 -1.54 2.3863 -0 0 5.56597e-015 -1.4042 -1.926 1.125 2.78299e-015 0 5.96354e-015 -2.0956 0.66 -0.3894 -3.97569e-016 -6.36111e-015 -3.18055e-015 -5.0395 -0.09 2.4971 -5.96354e-015 -3.18055e-015 3.97569e-015 -3.7921 -1.552 1.4806 -0 0 5.56597e-015 -1.4655 -1.808 0.9609 2.78299e-015 0 5.96354e-015 -4.9141 -1.269 0.3592 -5.96354e-015 -3.18055e-015 3.97569e-015 -3.1477 -1.685 0.8462 -0 0 5.56597e-015 -0.8055 -1.585 0.7955 2.78299e-015 0 5.96354e-015 8.367 -8.2066 0.5982 50.6237 -36.4854 91.0401 2.1923 -43.463 -0.4932 6.22794 37.5827 -61.6407 0.7333 -45.8593 -2.6451 8.1135 38.8512 40.0924 -8.367 -8.2066 0.5982 -50.6547 -36.4803 -91.0716 -2.1923 -43.463 -0.4931 -6.25888 37.5813 61.6663 -0.7333 -45.8593 -2.6451 -8.12829 38.8569 -40.1041 
-0.833682 22.0415 38.6609 -1.83715e-015 36.4338 180 1.11022e-016 -1.186 -1.5018 -0.343537 15.0863 0.00138728 1.11022e-016 9.964 0.2134 -0.727632 30.1723 0.106362 -5.55112e-017 13.134 -3.2573 -0.727633 30.1723 0.106362 -2.77556e-017 20.686 -1.6905 7.28066e-007 15.1785 3.61692e-007 4.996e-016 7.238 -0.1237 -3.42436e-007 10.4227 -2.5171e-008 1.7069 20.075 5.0056 13.582 3.27855 -21.6095 13.6458 -0.047 -4.849 -53.169 5.67191 -25.9241 28.3255 -0.9759 2.2888 -6.66602 2.40504 17.0763 22.1583 -0.53 10.8316 -6.42752 -10.5235 -22.0782 0.786 0.112 2.5817 -2.35163e-006 -1.65286e-006 -1.59785e-006 0.3601 -0.878 4.2331 2.86892e-006 4.42261e-006 8.46693e-006 1.8127 -1.216 2.2227 4.37326e-015 -3.18055e-015 1.59028e-015 0.9571 1.114 1.7695 -3.18055e-015 3.18055e-015 1.98785e-015 4.1246 0.487 4.1451 -2.35163e-006 -1.65286e-006 -1.59785e-006 3.4052 -1.454 2.7682 2.86892e-006 4.42261e-006 8.46693e-006 1.4531 -1.795 1.2713 3.97569e-015 3.18055e-015 2.78299e-015 5.6954 0.21 2.1184 -2.35163e-006 -1.65286e-006 -1.59785e-006 3.9766 -1.54 2.3863 2.86892e-006 4.42261e-006 8.46693e-006 1.4042 -1.926 1.125 3.97569e-015 3.18055e-015 2.78299e-015 2.0956 0.66 -0.3894 -3.18055e-015 3.18055e-015 1.98785e-015 5.0395 -0.09 2.4971 -2.35163e-006 -1.65286e-006 -1.59785e-006 3.7921 -1.552 1.4806 2.86892e-006 4.42261e-006 8.46693e-006 1.4655 -1.808 0.9609 3.97569e-015 3.18055e-015 2.78299e-015 4.9141 -1.269 0.3591 -2.35163e-006 -1.65286e-006 -1.59785e-006 3.1477 -1.685 0.8462 2.86892e-006 4.42261e-006 8.46693e-006 0.8055 -1.585 0.7955 3.97569e-015 3.18055e-015 2.78299e-015 -1.7069 20.075 5.0056 -12.5226 4.54384 22.4765 -13.6458 -0.047 -4.849 52.5841 5.33351 26.1478 -28.3255 -0.9759 2.2888 4.51623 2.63363 -18.2985 -22.1583 -0.53 10.8316 7.57086 -12.5398 22.7032 -0.786 0.112 2.5817 -6.36111e-015 3.18055e-015 -3.57812e-015 -0.3601 -0.878 4.2331 -9.93923e-015 -3.18055e-015 -1.19271e-015 -1.8127 -1.216 2.2227 -7.95139e-016 0 1.19271e-015 -0.9571 1.114 1.7695 -2.78299e-015 3.18055e-015 -2.38542e-015 -4.1246 0.487 4.1451 -7.55382e-015 0 5.1684e-015 -3.4052 -1.454 2.7682 1.19271e-015 0 2.78299e-015 -1.4531 -1.795 1.2713 -3.97569e-016 3.18055e-015 -3.97569e-015 -5.6954 0.21 2.1184 -7.55382e-015 0 5.1684e-015 -3.9766 -1.54 2.3863 1.19271e-015 0 2.78299e-015 -1.4042 -1.926 1.125 -3.97569e-016 3.18055e-015 -3.97569e-015 -2.0956 0.66 -0.3894 -2.78299e-015 3.18055e-015 -2.38542e-015 -5.0395 -0.09 2.4971 -7.55382e-015 0 5.1684e-015 -3.7921 -1.552 1.4806 1.19271e-015 0 2.78299e-015 -1.4655 -1.808 0.9609 -3.97569e-016 3.18055e-015 -3.97569e-015 -4.9141 -1.269 0.3592 -7.55382e-015 0 5.1684e-015 -3.1477 -1.685 0.8462 1.19271e-015 0 2.78299e-015 -0.8055 -1.585 0.7955 -3.97569e-016 3.18055e-015 -3.97569e-015 8.367 -8.2066 0.5982 45.8575 -39.2734 86.2909 2.1923 -43.463 -0.4932 3.48093 39.0146 -56.2511 0.7333 -45.8593 -2.6451 10.0795 36.9056 35.8873 -8.367 -8.2066 0.5982 -45.8875 -39.2721 -86.3236 -2.1923 -43.463 -0.4931 -3.50933 39.0153 56.2752 -0.7333 -45.8593 -2.6451 -10.0932 36.9112 -35.8977 
